<svg version="1.1" id="Layer_1" xmlns="http://www.w3.org/2000/svg" xmlns:xlink="http://www.w3.org/1999/xlink" x="0px" y="0px"
	 width="100%" viewBox="0 0 512 512" enable-background="new 0 0 512 512" xml:space="preserve">
<path fill="#000000" opacity="1.000000" stroke="none" 
	d="
M513.000000,98.000000 
	C513.000000,203.688095 513.000000,309.376190 512.695374,415.717133 
	C508.716553,419.769836 504.226471,420.405182 499.449402,420.404510 
	C337.908661,420.382416 176.367920,420.379883 14.827179,420.424500 
	C9.664430,420.425934 4.953187,419.529236 1.000000,416.000000 
	C1.000000,310.311890 1.000000,204.623810 1.311181,98.298012 
	C5.451211,94.181351 10.071039,93.585068 15.035167,93.586449 
	C176.082474,93.631348 337.129791,93.635101 498.177094,93.575073 
	C503.662872,93.573029 508.722900,94.292618 513.000000,98.000000 
M138.175873,168.809906 
	C135.251129,170.987518 132.297180,173.127121 129.406494,175.349030 
	C113.385841,187.663254 98.978302,201.768845 86.193604,217.293152 
	C65.486053,242.438019 48.815231,270.090057 37.545834,300.853973 
	C26.501329,331.003937 19.868734,361.966278 19.394098,394.141907 
	C19.284027,401.603699 19.390406,401.617798 26.918816,401.618134 
	C114.887749,401.622070 202.856689,401.622894 290.825623,401.621216 
	C298.610046,401.621063 298.621826,401.610107 298.622192,393.891998 
	C298.626465,303.090729 298.627045,212.289459 298.628113,121.488182 
	C298.628143,120.488548 298.567261,119.485458 298.629425,118.489891 
	C298.851898,114.927780 297.308502,113.317482 293.642609,113.333153 
	C289.967743,113.348854 286.382812,113.981262 282.757202,114.291359 
	C261.024048,116.150177 239.846146,120.452827 219.096298,127.253319 
	C190.119614,136.750046 163.356110,150.429535 138.175873,168.809906 
M354.499817,290.621185 
	C398.139740,290.623840 441.779663,290.626770 485.419586,290.628113 
	C487.085175,290.628143 488.750977,290.592346 490.416321,290.609375 
	C493.718964,290.643127 495.091980,288.813843 494.436798,285.813751 
	C493.091553,279.653564 493.000519,273.357544 491.897339,267.137054 
	C485.884888,233.234268 471.532196,203.251373 449.057739,177.510437 
	C427.051941,152.306290 400.123383,133.816910 368.121948,123.029678 
	C353.251770,118.017159 337.994263,115.264908 322.501404,113.444244 
	C318.010620,112.916504 317.339325,115.636658 317.342957,119.339172 
	C317.397064,174.472031 317.423431,229.605042 317.302155,284.737671 
	C317.291779,289.456726 319.096008,290.787354 323.519684,290.689331 
	C333.508636,290.467987 343.505890,290.620483 354.499817,290.621185 
M160.500214,112.394066 
	C115.671463,112.394958 70.842720,112.392303 26.013969,112.400787 
	C19.717682,112.401978 19.384626,112.708710 19.383564,118.803276 
	C19.373888,174.297577 19.379448,229.791870 19.383694,285.286163 
	C19.383770,286.285522 19.337513,287.296082 19.467028,288.281128 
	C19.596054,289.262451 19.919502,290.218201 20.285036,291.702057 
	C55.113350,206.214798 115.025772,147.054321 200.895279,112.921257 
	C187.126038,111.929718 174.305389,112.607101 160.500214,112.394066 
M486.601257,339.230072 
	C489.722778,330.995697 492.784424,322.759186 493.689545,313.886658 
	C494.012360,310.722717 493.211212,309.326294 489.757690,309.336792 
	C459.596344,309.428680 429.434601,309.416992 399.273010,309.390015 
	C396.018097,309.387115 394.345764,310.543549 394.353271,314.059753 
	C394.411652,341.388397 394.413147,368.717255 394.353943,396.045898 
	C394.346222,399.601624 396.061646,400.630768 399.305603,400.648590 
	C405.678619,400.683533 411.903107,399.577057 417.962219,397.914001 
	C449.704834,389.201508 472.405151,369.696167 486.601257,339.230072 
M494.630493,186.499619 
	C494.629059,163.844574 494.587921,141.189392 494.666321,118.534615 
	C494.678955,114.886917 494.106781,112.376122 489.624207,112.385643 
	C458.176453,112.452415 426.728516,112.421021 393.988007,112.421021 
	C438.313354,134.004684 471.013367,165.776917 492.957550,209.050797 
	C493.822998,207.760651 494.315277,207.367081 494.323883,206.963196 
	C494.462311,200.476013 494.539062,193.987488 494.630493,186.499619 
M359.909424,398.398499 
	C362.965302,399.130615 365.985748,400.155884 369.084808,400.530060 
	C374.506927,401.184753 375.600067,400.095520 375.612915,394.703522 
	C375.642181,382.402313 375.636475,370.100891 375.609406,357.799652 
	C375.596008,351.718506 375.294586,351.419708 368.989166,351.406708 
	C354.028198,351.375793 339.067078,351.374786 324.106110,351.404266 
	C322.506256,351.407410 320.743256,350.939697 319.176025,352.648315 
	C318.912201,356.905212 320.944000,360.801117 322.667847,364.657990 
	C329.989380,381.038788 341.671906,392.768982 359.909424,398.398499 
M494.627289,394.277679 
	C494.627289,385.424988 494.627289,376.572296 494.627289,367.719574 
	C494.095581,367.570557 493.563843,367.421539 493.032135,367.272491 
	C484.061523,380.529755 472.378479,391.070526 459.908386,401.094482 
	C469.433289,401.627716 478.722534,401.424866 487.996735,401.710297 
	C492.894196,401.860992 495.339600,400.360626 494.627289,394.277679 
M332.603638,315.165253 
	C326.898102,319.473480 321.910309,324.282776 320.337097,332.528076 
	C326.832367,332.528076 332.756989,332.591309 338.678711,332.487885 
	C340.362854,332.458466 341.482971,331.246948 341.506073,329.555176 
	C341.586639,323.661133 341.537231,317.765320 341.537231,311.629486 
	C337.839478,311.693054 335.509888,313.212311 332.603638,315.165253 
M368.645050,316.933502 
	C366.374817,314.921753 364.315552,312.499451 360.376068,312.612579 
	C360.376068,316.187836 360.376221,319.480743 360.376068,322.773651 
	C360.375549,333.252960 360.369873,333.106384 370.957275,332.700134 
	C374.636536,332.558960 375.085632,330.851044 374.542542,327.943573 
	C373.786926,323.898224 371.153229,320.832245 368.645050,316.933502 
M317.683655,400.034576 
	C319.176056,402.070984 320.836700,402.011353 323.078857,400.318054 
	C321.970703,397.772369 319.943512,396.227173 318.046387,394.286407 
	C317.074738,396.176270 317.578461,397.833496 317.683655,400.034576 
z"/>
</svg>